<svg width="137" height="138" viewBox="0 0 137 138" fill="none" xmlns="http://www.w3.org/2000/svg">
<g filter="url(#filter0_d_1_35)">
<path fill-rule="evenodd" clip-rule="evenodd" d="M9.98461 1.48777C10.5508 2.30597 13.728 6.92014 17.0448 11.7413C22.9699 20.3537 39.2021 43.9412 51.1858 61.3531C54.5317 66.2146 56.0523 68.5028 56.0523 68.5028C56.0666 68.6681 19.6512 111.261 6.05294 127.063C2.49001 131.204 16.3433 115.078 6.05294 127.063C1.34387 132.548 6.23549 126.864 6.05294 127.063L14.0493 127.057L24.5021 127.051C27.538 123.504 46.6074 100.882 64.2585 80.3486C67.4819 85.0147 78.6873 101.298 87.8625 114.65L96.387 127.055L114.694 127.059L133 127.063L132.689 126.621C132.518 126.378 130.51 123.464 128.227 120.147C113.273 98.4153 103.336 83.9771 102.377 82.591C101.766 81.7064 99.9958 79.137 98.4442 76.8812C96.8924 74.6254 92.7847 68.6543 89.3156 63.6119C85.8466 58.5696 82.8842 54.2517 82.7326 54.0165L83.5687 55.2442C79.3531 60.1504 84.5107 54.1524 83.5687 55.2442C87.7845 50.3379 115.675 15.9764 115.675 15.9764L119.113 32.972L120.627 2.94636C118.662 3.43742 121.854 2.70081 120.627 2.94636L88.1761 15.4853L105.649 12.031C97.9582 20.3163 78.1135 42.9782 76.4312 44.9319C72.8974 49.0454 78.8274 42.1454 76.4312 44.9319C74.0352 47.7185 78.4459 42.5877 76.4312 44.9319C74.4166 47.2762 76.534 44.9319 76.4312 44.9319C76.3285 44.9319 75.507 43.5592 72.9817 39.8881C70.4565 36.2169 65.2512 28.6535 61.4145 23.0804C57.5777 17.5073 52.4413 10.0369 50.0002 6.47944L45.5617 0.0112601L27.2583 0.00563097L8.95492 0L9.98461 1.48777ZM24.733 8.28358C24.733 8.32958 27.3614 12.1844 30.574 16.8497C33.7865 21.5152 36.9875 26.1644 37.6871 27.1817C43.0386 34.9621 44.632 37.2755 45.6074 38.6818C46.221 39.5664 50.5826 45.8994 55.3001 52.7552C60.0173 59.6111 68.1598 71.4448 73.3945 79.0525C78.6291 86.6603 85.2796 96.3227 88.1733 100.525C91.0671 104.727 95.076 110.568 97.0822 113.505L100.73 118.845L108.973 118.853C113.507 118.857 117.216 118.826 117.216 118.784C117.216 118.702 111.941 111.027 82.3364 68.035C79.1992 63.4792 74.3168 56.3862 71.4863 52.2727C65.2066 43.1463 66.1465 44.5116 55.9312 29.6747C48.1239 18.3354 45.5755 14.6319 42.4298 10.0525L41.2144 8.28326L32.9738 8.2416C28.4413 8.2186 24.733 8.23758 24.733 8.28358Z" fill="url(#paint0_linear_1_35)"/>
</g>
<defs>
<filter id="filter0_d_1_35" x="0" y="0" width="137" height="137.457" filterUnits="userSpaceOnUse" color-interpolation-filters="sRGB">
<feFlood flood-opacity="0" result="BackgroundImageFix"/>
<feColorMatrix in="SourceAlpha" type="matrix" values="0 0 0 0 0 0 0 0 0 0 0 0 0 0 0 0 0 0 127 0" result="hardAlpha"/>
<feOffset dy="4"/>
<feGaussianBlur stdDeviation="2"/>
<feComposite in2="hardAlpha" operator="out"/>
<feColorMatrix type="matrix" values="0 0 0 0 0 0 0 0 0 0 0 0 0 0 0 0 0 0 0.25 0"/>
<feBlend mode="normal" in2="BackgroundImageFix" result="effect1_dropShadow_1_35"/>
<feBlend mode="normal" in="SourceGraphic" in2="effect1_dropShadow_1_35" result="shape"/>
</filter>
<linearGradient id="paint0_linear_1_35" x1="145" y1="-5.49999" x2="68.5" y2="129.457" gradientUnits="userSpaceOnUse">
<stop stop-color="#AEB1B1"/>
<stop offset="0.955066" stop-color="#342F2F"/>
</linearGradient>
</defs>
</svg>
