<svg width="138" height="27" viewBox="0 0 212 64" fill="none" xmlns="http://www.w3.org/2000/svg">
<g filter="url(#filter0_d_17_3)">
<path fill-rule="evenodd" clip-rule="evenodd" d="M3.8554 0.709852C4.12553 1.10023 5.64146 3.30177 7.224 5.60207C10.051 9.71123 17.7957 20.9654 23.5135 29.273C25.1099 31.5926 25.8354 32.6843 25.8354 32.6843C25.8422 32.7632 8.46755 53.0854 1.97951 60.6249C0.279547 62.6004 6.8893 54.9065 1.97951 60.6249C-0.267305 63.2418 2.06661 60.53 1.97951 60.6249L5.79479 60.622L10.7821 60.6191C12.2305 58.927 21.329 48.1334 29.7508 38.3362C31.2888 40.5626 36.6351 48.3319 41.0128 54.7025L45.0801 60.6211L53.8145 60.623L62.549 60.6249L62.4005 60.4139C62.3188 60.2978 61.3608 58.9078 60.2717 57.3251C53.1369 46.9563 48.3954 40.0675 47.9382 39.4062C47.6464 38.9841 46.8019 37.7582 46.0616 36.6819C45.3212 35.6056 43.3613 32.7566 41.7061 30.3508C40.051 27.945 38.6376 25.8848 38.5652 25.7726L38.9641 26.3583C36.9528 28.6992 39.4136 25.8374 38.9641 26.3583C40.9756 24.0174 54.283 7.62272 54.283 7.62272L55.9231 15.7317L56.6454 1.40578C55.7082 1.64007 57.2311 1.28862 56.6454 1.40578L41.1624 7.38843L49.4993 5.74026C45.8297 9.69341 36.3613 20.5059 35.5587 21.4381C33.8726 23.4008 36.702 20.1086 35.5587 21.4381C34.4155 22.7676 36.5199 20.3196 35.5587 21.4381C34.5974 22.5566 35.6077 21.4381 35.5587 21.4381C35.5097 21.4381 35.1177 20.7832 33.9128 19.0316C32.708 17.2799 30.2244 13.6713 28.3939 11.0122C26.5632 8.35315 24.1125 4.78885 22.9478 3.0915L20.8301 0.00537245L12.0971 0.00268667L3.36411 0L3.8554 0.709852ZM10.8922 3.9523C10.8922 3.97424 12.1463 5.81346 13.6791 8.0394C15.2119 10.2654 16.7391 12.4837 17.073 12.9691C19.6263 16.6812 20.3865 17.7851 20.8519 18.456C21.1446 18.8781 23.2257 21.8997 25.4765 25.1708C27.7272 28.4419 31.6122 34.088 34.1098 37.7179C36.6073 41.3477 39.7805 45.9579 41.1611 47.9627C42.5418 49.9676 44.4546 52.7545 45.4118 54.1558L47.1521 56.7039L51.085 56.7075C53.2482 56.7095 55.018 56.6947 55.018 56.6746C55.018 56.6357 52.5012 52.9739 38.3762 32.4611C36.8794 30.2875 34.5498 26.9032 33.1994 24.9406C30.2032 20.5862 30.6516 21.2376 25.7776 14.1585C22.0526 8.74824 20.8367 6.98126 19.3358 4.79629L18.7559 3.95214L14.8241 3.93227C12.6615 3.92129 10.8922 3.93035 10.8922 3.9523Z" fill="white"/>
</g>
<g filter="url(#filter1_d_17_3)">
<path d="M88.9702 32.4957L97.1004 42H92.4055L86.4128 35.0149L80.1148 42H76.1451L84.428 32.8774L76.4505 23.4876H81.2217L87.0235 30.4345L93.0162 23.4876H97.0241L88.9702 32.4957ZM108.224 31.3888H118.568V26.9229C118.568 26.4394 118.492 26.1213 118.339 25.9686C118.186 25.8159 117.868 25.7396 117.385 25.7396H109.407C108.898 25.7396 108.567 25.8159 108.415 25.9686C108.288 26.1213 108.224 26.4394 108.224 26.9229V31.3888ZM107.155 23.4876H119.56C121.571 23.4876 122.576 24.4927 122.576 26.503V33.6408H108.224V38.5647C108.224 39.0736 108.288 39.4044 108.415 39.5571C108.567 39.6844 108.898 39.748 109.407 39.748H117.308C117.792 39.748 118.11 39.6844 118.263 39.5571C118.415 39.4044 118.492 39.0736 118.492 38.5647V36.618H122.5V38.9846C122.5 40.9949 121.494 42 119.484 42H107.155C105.145 42 104.14 40.9949 104.14 38.9846V26.503C104.14 24.4927 105.145 23.4876 107.155 23.4876ZM135.858 42H131.812V16.4643H135.858V42ZM159.558 38.5647V26.9229C159.558 26.4394 159.481 26.1213 159.329 25.9686C159.176 25.8159 158.858 25.7396 158.374 25.7396H150.664C150.181 25.7396 149.863 25.8159 149.71 25.9686C149.557 26.1213 149.481 26.4394 149.481 26.9229V38.5647C149.481 39.0736 149.557 39.4044 149.71 39.5571C149.863 39.6844 150.181 39.748 150.664 39.748H158.374C158.858 39.748 159.176 39.6844 159.329 39.5571C159.481 39.4044 159.558 39.0736 159.558 38.5647ZM148.45 23.4876H160.588C162.599 23.4876 163.604 24.4927 163.604 26.503V38.9846C163.604 40.9949 162.599 42 160.588 42H148.45C146.44 42 145.435 40.9949 145.435 38.9846V26.503C145.435 24.4927 146.44 23.4876 148.45 23.4876ZM180.129 23.4876H183.755V25.8541H179.442C177.737 25.8541 176.884 26.8084 176.884 28.7169V42H172.8V23.4876H176.884V25.8541C177.317 24.2764 178.398 23.4876 180.129 23.4876ZM195.352 39.748H202.757C203.215 39.748 203.546 39.6589 203.75 39.4808C203.953 39.2772 204.055 38.9337 204.055 38.4502V27.0374C204.055 26.5539 203.953 26.2231 203.75 26.045C203.546 25.8414 203.215 25.7396 202.757 25.7396H195.352C194.843 25.7396 194.512 25.8159 194.36 25.9686C194.233 26.1213 194.169 26.4394 194.169 26.9229V38.5647C194.169 39.0736 194.233 39.4044 194.36 39.5571C194.512 39.6844 194.843 39.748 195.352 39.748ZM204.055 23.4876H208.139V42H204.055V40.8167C203.724 41.6056 203.024 42 201.956 42H193.1C191.09 42 190.085 40.9949 190.085 38.9846V26.503C190.085 24.4927 191.09 23.4876 193.1 23.4876H201.956C203.024 23.4876 203.724 23.882 204.055 24.6708V23.4876Z" fill="white"/>
</g>
<defs>
<filter id="filter0_d_17_3" x="0.0628151" y="0" width="63.4234" height="63.6416" filterUnits="userSpaceOnUse" color-interpolation-filters="sRGB">
<feFlood flood-opacity="0" result="BackgroundImageFix"/>
<feColorMatrix in="SourceAlpha" type="matrix" values="0 0 0 0 0 0 0 0 0 0 0 0 0 0 0 0 0 0 127 0" result="hardAlpha"/>
<feOffset dy="0.937185"/>
<feGaussianBlur stdDeviation="0.468592"/>
<feComposite in2="hardAlpha" operator="out"/>
<feColorMatrix type="matrix" values="0 0 0 0 0 0 0 0 0 0 0 0 0 0 0 0 0 0 0.25 0"/>
<feBlend mode="normal" in2="BackgroundImageFix" result="effect1_dropShadow_17_3"/>
<feBlend mode="normal" in="SourceGraphic" in2="effect1_dropShadow_17_3" result="shape"/>
</filter>
<filter id="filter1_d_17_3" x="74.2366" y="16.4643" width="135.811" height="29.3527" filterUnits="userSpaceOnUse" color-interpolation-filters="sRGB">
<feFlood flood-opacity="0" result="BackgroundImageFix"/>
<feColorMatrix in="SourceAlpha" type="matrix" values="0 0 0 0 0 0 0 0 0 0 0 0 0 0 0 0 0 0 127 0" result="hardAlpha"/>
<feOffset dy="1.9085"/>
<feGaussianBlur stdDeviation="0.954248"/>
<feComposite in2="hardAlpha" operator="out"/>
<feColorMatrix type="matrix" values="0 0 0 0 0 0 0 0 0 0 0 0 0 0 0 0 0 0 0.25 0"/>
<feBlend mode="normal" in2="BackgroundImageFix" result="effect1_dropShadow_17_3"/>
<feBlend mode="normal" in="SourceGraphic" in2="effect1_dropShadow_17_3" result="shape"/>
</filter>
</defs>
</svg>
